<?xml version="1.0" standalone="no"?>
<!DOCTYPE svg PUBLIC "-//W3C//DTD SVG 20010904//EN"
 "http://www.w3.org/TR/2001/REC-SVG-20010904/DTD/svg10.dtd">
<svg version="1.0" xmlns="http://www.w3.org/2000/svg"
 width="946.000000pt" height="1035.000000pt" viewBox="0 0 946.000000 1035.000000"
 preserveAspectRatio="xMidYMid meet">

<g transform="translate(0.000000,1035.000000) scale(0.100000,-0.100000)"
fill="#000000" stroke="none">
<path d="M3865 9749 c-40 -12 -111 -23 -165 -25 -64 -3 -132 -15 -210 -37
-129 -35 -170 -60 -313 -187 -46 -42 -120 -95 -164 -118 -95 -52 -228 -156
-304 -240 -110 -122 -193 -330 -224 -563 -3 -25 1 -97 9 -160 8 -63 18 -190
22 -284 5 -129 14 -213 40 -352 19 -100 34 -193 34 -206 0 -23 -199 -281 -375
-487 -41 -47 -124 -143 -185 -215 -62 -71 -119 -143 -127 -159 -14 -26 -13
-30 6 -49 20 -20 21 -20 98 -2 43 10 96 24 118 31 154 47 324 44 535 -10 114
-29 344 -98 402 -121 20 -8 29 -33 63 -182 35 -155 35 -156 -23 -176 -69 -25
-274 -138 -334 -185 -116 -90 -288 -283 -288 -323 0 -5 -7 -20 -15 -32 -8 -12
-28 -56 -46 -97 -26 -62 -32 -89 -33 -155 0 -44 3 -94 8 -111 8 -31 8 -32 -67
-67 -78 -37 -92 -46 -271 -178 -61 -44 -122 -87 -137 -95 -37 -18 -92 -18
-154 2 -27 9 -72 20 -100 25 -110 17 -157 29 -170 39 -16 13 -149 16 -222 5
-32 -5 -70 -3 -101 5 -42 10 -53 17 -66 45 -9 18 -16 39 -16 47 0 8 -9 33 -20
56 -20 40 -32 48 -85 53 -29 3 -105 -31 -105 -47 0 -8 -17 -24 -37 -37 l-37
-24 -28 29 c-15 15 -34 28 -42 28 -19 0 -67 -26 -60 -33 3 -3 -4 -10 -15 -17
-12 -6 -21 -17 -21 -25 0 -8 -4 -15 -9 -15 -5 0 -26 -8 -47 -17 -29 -13 -74
-18 -174 -20 -74 -2 -161 -4 -193 -5 -35 -1 -61 3 -66 10 -4 6 -39 14 -79 18
l-72 7 0 -1635 0 -1636 76 -7 c57 -5 79 -4 84 6 6 9 28 10 92 4 45 -5 99 -9
118 -11 19 -1 46 -4 60 -8 14 -3 111 -8 215 -10 105 -3 202 -9 217 -15 16 -6
70 -13 121 -16 51 -3 118 -12 148 -21 29 -9 92 -22 138 -29 47 -8 91 -17 98
-19 7 -3 13 0 13 7 0 7 7 3 15 -7 10 -13 15 -15 15 -6 0 7 3 11 6 7 11 -10 33
-385 40 -657 5 -220 9 -275 25 -325 17 -54 17 -64 4 -100 -10 -28 -14 -86 -15
-193 0 -136 -2 -157 -19 -181 -11 -15 -26 -58 -34 -97 -11 -58 -17 -70 -35
-72 -25 -4 -26 -6 -12 -33 10 -18 7 -19 -42 -18 -29 0 -46 3 -38 7 22 10 23
50 2 60 -9 5 -33 8 -52 7 -19 0 -41 6 -49 13 -9 9 -25 12 -43 8 -15 -3 -28 -1
-28 4 0 6 -5 10 -11 10 -5 0 -7 -4 -4 -10 3 -5 -1 -10 -9 -10 -8 0 -18 4 -21
10 -12 20 -42 11 -41 -12 1 -18 -5 -24 -27 -26 -15 -2 -27 0 -26 5 5 28 -3 43
-23 43 -13 0 -38 14 -56 31 -31 29 -34 30 -51 14 -20 -17 -35 -19 -94 -9 -24
4 -37 11 -34 19 8 20 -38 6 -52 -17 -14 -23 -2 -38 32 -38 9 0 17 -5 17 -10 0
-6 9 -5 21 2 17 10 23 10 26 1 3 -7 11 -13 19 -13 9 0 13 -4 10 -9 -3 -4 7 -6
22 -4 23 3 24 2 7 -6 -19 -9 -18 -10 5 -11 18 -2 20 -4 7 -7 -29 -7 -19 -23
16 -24 l32 -2 -30 -6 c-22 -4 -12 -7 40 -11 39 -4 -64 -7 -228 -8 -170 -1
-296 2 -293 7 3 5 52 8 108 6 57 -1 79 0 51 2 -29 2 -53 8 -53 14 0 5 -7 20
-16 33 -14 23 -17 23 -42 10 -15 -8 -30 -14 -34 -14 -12 0 -2 44 10 48 23 7
12 32 -13 32 -18 0 -28 7 -35 26 -9 24 -14 26 -47 19 -33 -6 -68 -22 -134 -61
-11 -6 -28 -19 -38 -28 -11 -10 -25 -15 -31 -11 -6 3 -31 8 -55 9 l-45 3 0
-59 0 -58 4730 0 4730 0 0 69 c0 46 -4 71 -12 75 -10 5 -10 7 0 12 9 4 12 466
12 2259 0 2045 -1 2253 -16 2259 -9 3 -25 6 -37 6 -12 0 -49 14 -82 31 -60 30
-139 44 -307 54 -31 2 -63 7 -70 11 -15 10 -43 11 -278 13 -97 1 -183 -1 -191
-4 -8 -3 -43 3 -78 14 -52 16 -83 19 -189 15 -70 -3 -145 -11 -167 -19 -54
-18 -182 -30 -198 -17 -6 5 -28 13 -47 17 -19 4 -45 13 -57 21 -18 11 -41 11
-135 2 -137 -14 -235 -13 -254 3 -21 17 -236 13 -291 -6 -24 -8 -50 -15 -58
-15 -7 0 -16 -4 -19 -8 -6 -10 44 -66 67 -75 10 -4 16 -11 13 -16 -3 -5 4 -11
16 -14 17 -5 19 -9 9 -21 -10 -12 -20 -6 -66 39 -62 60 -159 132 -251 184
-148 86 -301 196 -296 213 1 5 -2 7 -7 4 -5 -4 -12 -2 -16 4 -3 5 1 10 9 10
18 0 82 87 116 156 47 97 46 91 13 132 -51 63 -102 92 -209 118 -54 13 -121
26 -149 29 -70 9 -147 26 -167 38 -9 6 -20 27 -23 46 -4 20 -22 63 -40 96 -41
74 -59 136 -43 146 17 11 4 140 -16 151 -9 5 -16 22 -16 38 0 17 -3 29 -7 29
-23 -4 -43 2 -38 11 3 6 0 10 -9 10 -8 0 -16 -5 -18 -10 -2 -6 -13 -12 -25
-14 -11 -3 -38 -16 -60 -30 -21 -14 -49 -27 -61 -28 -22 -3 -26 5 -48 80 -32
111 -64 171 -124 234 -28 29 -59 63 -70 76 -11 12 -24 22 -29 22 -9 0 -81
-115 -81 -131 0 -5 -4 -9 -8 -9 -5 0 -19 -33 -31 -72 -12 -40 -33 -93 -46
-118 -22 -43 -24 -45 -64 -42 -33 2 -39 -1 -35 -13 9 -23 -38 -19 -72 7 -37
28 -43 38 -37 54 4 10 10 11 25 3 32 -17 43 -5 18 19 -26 24 -78 42 -121 42
-22 0 -26 5 -26 26 0 21 8 30 41 45 22 10 61 19 86 19 55 1 105 38 115 88 6
30 5 32 -22 32 -16 0 -39 9 -51 20 -24 22 -62 26 -80 8 -9 -9 -12 -7 -12 10 0
17 -7 24 -31 29 -25 5 -49 32 -49 56 0 4 117 -2 153 -7 26 -5 37 -3 37 6 0 13
61 48 83 48 7 0 20 -9 30 -20 9 -11 29 -20 45 -20 21 0 32 -7 40 -25 18 -40
39 -33 90 29 6 8 12 19 12 23 0 5 9 16 20 26 11 9 20 24 20 32 0 24 -59 122
-91 153 -16 15 -29 33 -29 40 0 7 -11 18 -25 24 -14 6 -25 15 -25 19 0 4 -10
19 -23 33 -21 23 -25 24 -39 9 -15 -15 -38 -11 -38 6 0 5 26 28 58 52 63 47
112 98 112 116 0 20 -12 43 -22 43 -6 0 -8 -7 -4 -15 8 -21 5 -20 -43 25 -40
37 -44 46 -47 96 -2 30 -6 59 -9 64 -3 5 1 15 9 23 8 8 12 17 9 20 -3 3 -5 24
-5 46 1 24 -4 41 -13 44 -7 3 -16 19 -20 36 -4 17 -12 34 -19 38 -14 9 -50 73
-41 73 3 0 -4 10 -15 22 -11 12 -18 28 -16 35 3 7 1 15 -4 18 -6 4 -10 15 -10
25 0 11 -12 25 -27 32 -16 8 -28 22 -29 33 -1 11 -4 29 -9 40 -15 41 -15 49
-5 55 7 4 -11 10 -39 14 -53 7 -67 21 -28 29 21 4 21 4 1 6 -17 1 -20 6 -16
26 2 15 0 25 -7 25 -18 0 -52 40 -45 52 5 7 3 8 -6 3 -9 -5 -10 -2 -5 14 3 11
2 21 -3 21 -12 0 -34 49 -27 60 3 5 1 11 -5 15 -5 3 -10 17 -10 30 0 18 -4 23
-15 19 -11 -4 -19 3 -26 25 -6 17 -17 31 -25 31 -8 0 -14 5 -14 11 0 5 -4 7
-10 4 -11 -7 -167 28 -248 55 -28 10 -60 17 -70 15 -9 -1 -11 0 -4 2 6 3 12 9
12 14 0 5 6 9 13 9 19 0 17 108 -2 115 -13 5 -13 7 -1 15 12 7 12 13 1 33 -7
13 -12 30 -11 38 6 37 -2 57 -25 67 -22 10 -24 14 -13 31 9 15 9 23 0 34 -10
12 -9 18 4 31 12 13 13 20 4 31 -16 19 -3 40 15 25 18 -15 36 -4 28 15 -3 9 1
22 8 31 12 14 34 15 174 9 277 -12 478 -42 594 -91 40 -17 91 -61 91 -80 0 -7
16 -31 35 -54 20 -24 41 -65 51 -100 9 -33 20 -60 24 -60 4 0 13 28 20 63 7
34 16 65 19 70 4 4 29 0 55 -9 40 -14 79 -15 239 -11 198 5 264 16 330 54 17
11 32 24 32 29 0 6 -27 32 -59 59 l-59 48 -112 3 c-143 3 -313 36 -396 78 -59
28 -65 34 -74 73 -13 53 -23 64 -75 73 -30 6 -43 4 -46 -5 -3 -7 12 -68 33
-135 l38 -122 50 -16 c28 -10 50 -23 50 -29 0 -20 -10 -20 -64 2 -46 17 -53
24 -62 60 -6 22 -26 89 -44 150 -18 60 -31 113 -29 117 3 5 14 8 25 8 27 0 24
18 -14 102 -36 78 -80 128 -137 158 -20 10 -45 36 -58 59 -23 40 -84 81 -121
81 -35 0 -106 48 -251 169 -85 71 -187 148 -227 171 -102 58 -172 71 -403 76
-176 4 -202 2 -265 -17z m1379 -624 c3 -8 2 -15 -3 -15 -5 0 -14 7 -21 15 -10
12 -10 15 3 15 8 0 17 -7 21 -15z m-694 -24 c0 -11 -100 -18 -145 -11 -24 3
-18 5 25 10 88 11 120 11 120 1z m47 -7 c-3 -3 -12 -4 -19 -1 -8 3 -5 6 6 6
11 1 17 -2 13 -5z m456 -45 c34 -11 69 -25 77 -31 17 -11 5 -9 -150 26 l-105
24 58 1 c34 1 83 -7 120 -20z m-368 -1009 c173 -44 261 -136 273 -287 6 -73
-12 -88 -22 -19 l-7 44 -72 16 c-78 17 -319 54 -407 63 -30 3 -67 11 -82 19
-15 8 -34 14 -44 14 -10 0 -14 5 -10 15 5 13 2 14 -15 4 -28 -14 -38 -3 -13
16 15 11 16 14 4 15 -13 0 -13 1 0 10 8 5 10 10 4 10 -16 0 -72 -62 -83 -93
-10 -27 -13 -27 -61 -21 -43 6 -50 4 -50 -11 0 -14 -5 -16 -22 -9 -31 10 -87
10 -398 0 -146 -4 -263 -6 -260 -3 4 4 94 10 542 32 43 2 86 9 97 14 11 6 39
8 64 5 39 -6 48 -3 64 16 56 70 91 104 125 121 101 51 242 62 373 29z m-1286
-226 c2 -2 -28 -4 -67 -4 -40 0 -72 4 -72 10 0 8 129 3 139 -6z m758 -46 c-3
-8 -6 -5 -6 6 -1 11 2 17 5 13 3 -3 4 -12 1 -19z m127 -456 c71 -75 115 -95
225 -102 89 -5 93 -6 50 -14 -94 -16 -225 32 -291 108 -31 35 -88 137 -88 157
0 8 14 -13 31 -46 17 -33 50 -79 73 -103z m556 55 c0 -2 -12 -14 -27 -28 l-28
-24 24 28 c23 25 31 32 31 24z m-60 -60 c0 -2 -10 -12 -22 -23 l-23 -19 19 23
c18 21 26 27 26 19z m-50 -45 c0 -13 -96 -55 -111 -49 -9 3 -7 6 6 6 11 1 38
12 60 25 48 29 45 28 45 18z m-150 -334 c0 -17 -19 -26 -21 -10 -1 4 -3 20 -5
36 -3 26 -2 27 11 10 8 -11 15 -27 15 -36z m-20 -48 c0 -14 -33 -21 -44 -10
-8 8 -7 13 3 19 15 10 41 4 41 -9z m576 -205 c23 -18 48 -19 73 -3 10 6 27 8
37 4 17 -7 15 -10 -16 -26 -19 -11 -48 -19 -63 -20 -36 0 -87 26 -87 45 0 19
31 19 56 0z m209 -18 c12 -10 14 -16 7 -21 -7 -4 -12 -3 -12 2 0 6 -9 8 -20 5
-14 -4 -20 0 -20 11 0 20 20 21 45 3z m568 -598 c4 -16 3 -18 -9 -8 -16 13
-19 29 -5 29 5 0 11 -9 14 -21z m67 -361 c0 -12 -14 -10 -28 4 -19 19 -14 29
8 16 11 -7 20 -16 20 -20z m1130 -1064 c0 -11 5 -14 16 -10 23 9 104 -79 105
-113 l1 -26 7 25 c5 17 9 21 15 12 4 -7 4 -22 0 -34 -6 -20 -14 -15 -85 62
-77 83 -89 100 -69 100 6 0 10 -7 10 -16z m191 -151 c12 -10 27 -24 33 -31 6
-7 18 -21 27 -31 9 -10 33 -47 55 -82 21 -35 73 -110 114 -167 145 -199 177
-248 213 -322 48 -98 85 -320 88 -520 1 -69 6 -137 10 -152 4 -16 6 -28 4 -28
-7 0 -45 91 -45 106 0 8 -4 22 -9 32 -19 38 -45 98 -47 111 -2 12 -32 91 -59
156 -6 17 -18 46 -25 65 -7 19 -17 40 -21 45 -4 6 -15 33 -24 60 -9 28 -24 66
-34 85 -10 19 -22 46 -26 60 -7 22 -6 23 9 11 9 -7 16 -20 16 -27 0 -8 3 -14
8 -14 7 0 43 -88 58 -140 4 -14 15 -35 25 -48 10 -13 23 -39 29 -58 6 -19 16
-34 21 -34 5 0 9 -7 9 -16 0 -9 10 -33 21 -54 15 -27 26 -36 39 -33 15 4 16
10 9 37 -5 18 -10 59 -13 92 -3 62 -18 119 -42 166 -8 15 -13 30 -12 35 6 23
-56 139 -113 214 -16 20 -25 39 -21 43 3 4 -6 2 -22 -4 -16 -6 -30 -9 -32 -8
-7 7 -44 115 -44 128 0 8 -14 31 -30 50 -16 19 -30 43 -30 52 0 15 -24 38
-135 131 -16 14 -26 29 -21 34 4 4 15 -2 23 -14 19 -28 33 -30 33 -5 0 27 -20
42 -50 35 -15 -3 -31 0 -34 6 -4 7 1 11 13 11 12 0 21 5 21 10 0 6 -4 10 -10
10 -5 0 -10 5 -10 10 0 14 7 13 31 -7z m974 -153 c17 0 24 -7 29 -31 7 -34 -7
-69 -28 -69 -7 0 -25 -9 -39 -20 -29 -23 -110 -29 -101 -7 2 7 -6 23 -20 36
l-24 23 19 31 c24 40 43 48 98 42 24 -3 54 -5 66 -5z m-4605 -220 c0 -5 -4
-10 -10 -10 -5 0 -10 5 -10 10 0 6 5 10 10 10 6 0 10 -4 10 -10z m4791 -36 c8
-9 26 -14 48 -13 57 3 131 -12 131 -27 0 -7 -13 -27 -30 -45 -16 -18 -27 -36
-24 -41 3 -4 -2 -11 -10 -14 -9 -3 -16 -13 -16 -20 0 -17 -47 -37 -67 -30 -7
3 -13 15 -13 27 0 12 -5 19 -12 16 -7 -2 -28 2 -46 10 -18 7 -42 11 -55 8 -12
-3 -27 -2 -33 2 -14 10 -26 74 -16 89 12 18 70 44 85 38 8 -3 18 -1 22 5 9 15
20 14 36 -5z m-981 -52 c0 -7 -4 -10 -10 -7 -5 3 -10 16 -10 28 0 18 2 19 10
7 5 -8 10 -21 10 -28z m-3843 -154 c-3 -8 -6 -5 -6 6 -1 11 2 17 5 13 3 -3 4
-12 1 -19z m-7 -234 c0 -8 -5 -12 -10 -9 -6 4 -8 11 -5 16 9 14 15 11 15 -7z
m-10 -234 c0 -5 -4 -10 -10 -10 -5 0 -10 5 -10 10 0 6 5 10 10 10 6 0 10 -4
10 -10z m-10 -235 c0 -8 -4 -15 -10 -15 -5 0 -10 7 -10 15 0 8 5 15 10 15 6 0
10 -7 10 -15z m4300 -180 c11 -38 30 -97 41 -130 53 -156 70 -210 107 -345 22
-80 54 -212 72 -295 17 -82 36 -168 42 -190 6 -22 15 -85 20 -140 21 -233 26
-271 31 -285 3 -8 9 -31 12 -50 3 -19 9 -53 15 -75 5 -22 10 -47 10 -55 0 -13
-1 -13 -10 0 -5 8 -10 27 -10 41 0 15 -7 40 -15 55 -8 16 -15 38 -15 49 -1 23
-22 105 -31 120 -9 14 -33 105 -53 200 -10 44 -23 100 -29 125 -6 25 -11 71
-10 103 1 31 -2 57 -7 57 -5 0 -9 19 -9 43 0 74 -18 186 -32 203 -8 9 -14 42
-14 78 -1 34 -5 68 -10 76 -5 8 -10 26 -12 41 -1 16 -10 47 -18 71 -25 67 -45
138 -57 193 -5 28 -14 58 -19 67 -12 24 -49 131 -49 142 0 26 32 -37 50 -99z
m-4310 -55 c0 -5 -4 -10 -10 -10 -5 0 -10 5 -10 10 0 6 5 10 10 10 6 0 10 -4
10 -10z m-10 -240 c0 -5 -2 -10 -4 -10 -3 0 -8 5 -11 10 -3 6 -1 10 4 10 6 0
11 -4 11 -10z m4707 -1492 c-3 -7 -5 -2 -5 12 0 14 2 19 5 13 2 -7 2 -19 0
-25z m20 -100 c-3 -8 -6 -5 -6 6 -1 11 2 17 5 13 3 -3 4 -12 1 -19z m43 -213
c21 -153 23 -175 11 -175 -6 0 -11 8 -12 18 0 9 -2 26 -4 37 -1 11 -6 52 -9
91 -3 39 -9 86 -12 105 -5 23 -3 31 3 24 6 -5 16 -50 23 -100z m20 -255 c0
-22 -3 -40 -7 -40 -5 0 -8 18 -8 40 0 22 3 40 8 40 4 0 7 -18 7 -40z m-34
-165 c8 10 14 31 14 47 0 15 4 28 9 28 5 0 11 -57 13 -127 l3 -128 33 -32 c32
-32 33 -33 17 -64 -9 -17 -14 -33 -11 -37 3 -3 1 -11 -6 -19 -9 -12 -14 -9
-24 14 l-12 28 -3 -35 c-2 -37 -2 -62 0 -95 1 -17 3 -18 12 -5 9 13 10 13 6 0
-2 -8 -16 -16 -30 -18 -26 -3 -27 -1 -28 40 0 45 -3 68 -16 158 -4 30 -8 62
-9 70 -1 8 -3 22 -6 30 -9 25 -27 112 -34 162 -9 70 5 77 33 17 24 -49 27 -51
39 -34z m474 -330 c0 -14 5 -25 12 -25 6 0 4 -6 -6 -13 -19 -14 -96 -10 -96 5
0 5 -4 7 -9 4 -5 -3 -14 1 -21 8 -9 12 -7 17 11 27 17 9 24 9 27 0 6 -17 62
-14 62 4 0 8 5 15 10 15 6 0 10 -11 10 -25z m-7796 -100 c4 -11 -2 -15 -25
-15 -25 0 -28 2 -17 15 17 19 34 19 42 0z"/>
<path d="M4568 8023 c6 -2 18 -2 25 0 6 3 1 5 -13 5 -14 0 -19 -2 -12 -5z"/>
<path d="M4408 8013 c6 -2 18 -2 25 0 6 3 1 5 -13 5 -14 0 -19 -2 -12 -5z"/>
<path d="M4340 7992 c-14 -9 -26 -26 -27 -37 -1 -11 0 -14 3 -7 3 7 22 24 42
37 20 14 30 25 22 24 -8 0 -26 -8 -40 -17z"/>
<path d="M7560 4070 c0 -5 5 -10 11 -10 5 0 7 5 4 10 -3 6 -8 10 -11 10 -2 0
-4 -4 -4 -10z"/>
<path d="M7792 3410 c0 -19 2 -27 5 -17 2 9 2 25 0 35 -3 9 -5 1 -5 -18z"/>
<path d="M5360 8234 c-14 -7 -32 -13 -41 -14 -9 0 -31 -13 -49 -30 -18 -16
-37 -30 -44 -30 -6 0 -13 -12 -14 -26 -1 -15 -7 -33 -13 -40 -23 -28 -4 -42
48 -33 26 4 58 8 71 8 22 1 22 0 8 -20 -8 -12 -25 -27 -37 -33 -26 -13 -24
-32 3 -28 10 2 43 -4 73 -13 54 -15 56 -15 102 10 36 18 42 25 25 25 -13 0
-22 6 -22 15 0 13 -4 14 -22 4 -21 -11 -22 -11 -9 4 11 14 11 18 -4 23 -13 5
-14 9 -3 15 19 12 138 11 138 -1 0 -5 5 -10 10 -10 13 0 11 57 -3 96 -22 57
-59 91 -98 90 -19 -1 -40 -5 -46 -9 -7 -4 -21 -4 -30 2 -13 6 -26 5 -43 -5z"/>
<path d="M5201 7964 c0 -7 -12 -15 -25 -18 -47 -12 -42 -65 5 -66 10 0 36 -11
60 -24 l42 -24 29 39 c29 40 35 55 18 44 -5 -3 -20 3 -32 14 -12 12 -16 21 -9
21 7 0 9 5 6 10 -9 15 -41 12 -55 -5 -16 -20 -27 -19 -33 3 -3 9 -5 12 -6 6z"/>
<path d="M5140 7826 c0 -33 86 -196 121 -229 11 -10 17 -22 14 -28 -8 -12 58
-130 105 -191 20 -26 48 -72 61 -102 29 -66 63 -86 147 -86 102 0 199 74 261
201 34 69 61 178 61 247 0 63 -18 51 -23 -15 -5 -69 -22 -136 -35 -141 -6 -2
-8 -11 -5 -20 5 -21 -37 -64 -44 -44 -9 24 -25 12 -19 -14 6 -22 4 -25 -13
-19 -11 3 -31 1 -43 -6 -13 -7 -50 -13 -84 -14 -33 -1 -65 -5 -72 -9 -13 -8
-27 16 -37 64 -4 19 -10 39 -13 45 -3 5 -7 18 -9 27 -2 10 -4 26 -6 36 -2 9
-6 22 -10 29 -4 6 -7 22 -7 34 1 13 -1 49 -3 79 -4 69 -19 78 -120 74 -39 -2
-75 -4 -79 -4 -5 0 -8 -9 -8 -19 0 -11 -5 -23 -12 -27 -17 -10 -38 25 -38 64
0 29 3 32 20 27 15 -5 20 -2 20 12 0 14 -14 24 -47 36 -66 24 -83 22 -83 -7z"/>
<path d="M5890 7792 c0 -36 39 -58 55 -32 3 6 1 10 -6 10 -7 0 -21 7 -31 17
-10 9 -18 11 -18 5z"/>
<path d="M5856 7553 c-6 -14 -5 -15 5 -6 7 7 10 15 7 18 -3 3 -9 -2 -12 -12z"/>
<path d="M5385 6460 c3 -5 8 -10 11 -10 2 0 4 5 4 10 0 6 -5 10 -11 10 -5 0
-7 -4 -4 -10z"/>
<path d="M6620 5329 c0 -5 5 -7 10 -4 6 3 10 8 10 11 0 2 -4 4 -10 4 -5 0 -10
-5 -10 -11z"/>
<path d="M548 73 c-10 -2 -18 -9 -18 -15 0 -6 10 -8 23 -4 12 3 30 6 40 6 9 0
17 5 17 10 0 10 -30 12 -62 3z"/>
</g>
</svg>
